<svg xmlns="http://www.w3.org/2000/svg" xlink="http://www.w3.org/1999/xlink" width="1320.666" height="421.379" viewBox="0 0 1320.666 421.379">
  <defs>
    <filter id="Path_88" x="616" y="0" width="704.666" height="263.379" filterUnits="userSpaceOnUse">
      <feOffset dy="3" input="SourceAlpha"/>
      <feGaussianBlur stdDeviation="3" result="blur"/>
      <feFlood flood-color="red" flood-opacity="0.161"/>
      <feComposite operator="in" in2="blur"/>
      <feComposite in="SourceGraphic"/>
    </filter>
    <filter id="Path_89" x="275" y="83" width="655.666" height="164.38" filterUnits="userSpaceOnUse">
      <feOffset dy="3" input="SourceAlpha"/>
      <feGaussianBlur stdDeviation="3" result="blur-2"/>
      <feFlood flood-color="red" flood-opacity="0.161"/>
      <feComposite operator="in" in2="blur-2"/>
      <feComposite in="SourceGraphic"/>
    </filter>
    <filter id="Path_90" x="0" y="83.162" width="931.884" height="338.217" filterUnits="userSpaceOnUse">
      <feOffset dy="3" input="SourceAlpha"/>
      <feGaussianBlur stdDeviation="3" result="blur-3"/>
      <feFlood flood-color="red" flood-opacity="0.161"/>
      <feComposite operator="in" in2="blur-3"/>
      <feComposite in="SourceGraphic"/>
    </filter>
  </defs>
  <g transform="matrix(1, 0, 0, 1, 0, 0)" filter="url(#Path_88)">
    <path id="Path_88-2" data-name="Path 88" d="M-1503.455,2454.4l117.714-242.378s470.9,1.193,565.952,0" transform="translate(2129.96 -2204.52)" fill="none" stroke="#f12222" stroke-linecap="round" stroke-width="3"/>
  </g>
  <g transform="matrix(1, 0, 0, 1, 0, 0)" filter="url(#Path_89)">
    <path id="Path_89-2" data-name="Path 89" d="M-819.789,2212.026c-95.055,1.193-565.952,0-565.952,0l-68.714,143.378" transform="translate(1739.96 -2121.52)" fill="none" stroke="#f12222" stroke-linecap="round" stroke-width="3"/>
  </g>
  <g transform="matrix(1, 0, 0, 1, 0, 0)" filter="url(#Path_90)">
    <path id="Path_90-2" data-name="Path 90" d="M-1503.455,2454.4l117.714-242.378h758.952l34.218-74.839" transform="translate(1513.96 -2046.52)" fill="none" stroke="#f12222" stroke-linecap="round" stroke-width="3"/>
  </g>
</svg>
